<svg width="35" height="35" viewBox="0 0 35 35" fill="none" xmlns="http://www.w3.org/2000/svg">
<path d="M17.5 8.75V17.5L22.8142 20.1571" stroke="#EF8422" stroke-width="2" stroke-linecap="round" stroke-linejoin="round"/>
<path d="M23.3333 27.7083H32.0833" stroke="#EF8422" stroke-width="2" stroke-linecap="round" stroke-linejoin="round"/>
<path d="M27.7083 23.3333V32.0833" stroke="#EF8422" stroke-width="2" stroke-linecap="round" stroke-linejoin="round"/>
<path d="M31.9667 19.3477C32.352 16.33 31.7839 13.2673 30.3419 10.5885C28.8999 7.90975 26.6563 5.74899 23.9252 4.40878C21.1941 3.06858 18.1122 2.61605 15.1111 3.11455C12.11 3.61305 9.33997 5.03762 7.18879 7.18879C5.03762 9.33997 3.61305 12.11 3.11455 15.1111C2.61605 18.1122 3.06858 21.1941 4.40878 23.9252C5.74899 26.6563 7.90975 28.8999 10.5885 30.3419C13.2673 31.7839 16.33 32.352 19.3477 31.9667" stroke="#EF8422" stroke-width="2" stroke-linecap="round" stroke-linejoin="round"/>
</svg>
