<svg width="30" height="35" viewBox="0 0 30 35" fill="none" xmlns="http://www.w3.org/2000/svg">
<path d="M15 11.6667C21.2132 11.6667 26.25 9.7079 26.25 7.29166C26.25 4.87541 21.2132 2.91666 15 2.91666C8.7868 2.91666 3.75 4.87541 3.75 7.29166C3.75 9.7079 8.7868 11.6667 15 11.6667Z" stroke="#EF8422" stroke-width="2" stroke-linecap="round" stroke-linejoin="round"/>
<path d="M3.75 7.29166V27.7083C3.75 28.8686 4.93526 29.9814 7.04505 30.8019C9.15483 31.6224 12.0163 32.0833 15 32.0833C17.9837 32.0833 20.8452 31.6224 22.955 30.8019C25.0647 29.9814 26.25 28.8686 26.25 27.7083V7.29166" stroke="#EF8422" stroke-width="2" stroke-linecap="round" stroke-linejoin="round"/>
<path d="M3.75 17.5C3.75 18.6603 4.93526 19.7731 7.04505 20.5936C9.15483 21.4141 12.0163 21.875 15 21.875C17.9837 21.875 20.8452 21.4141 22.955 20.5936C25.0647 19.7731 26.25 18.6603 26.25 17.5" stroke="#EF8422" stroke-width="2" stroke-linecap="round" stroke-linejoin="round"/>
</svg>
