<svg width="25" height="30" viewBox="0 0 25 30" fill="none" xmlns="http://www.w3.org/2000/svg">
<path fill-rule="evenodd" clip-rule="evenodd" d="M12.3234 29.9702C12.4422 30.0092 12.5578 30.0107 12.6766 29.9702C14.1937 29.4752 25 25.5271 25 13.8795V3.45594C25.0003 3.32189 24.9539 3.19159 24.8681 3.08583C24.7823 2.98007 24.662 2.90494 24.5266 2.87244L12.6516 0.0179093C12.5521 -0.00596977 12.4479 -0.00596977 12.3484 0.0179093L0.473439 2.87244C0.337967 2.90494 0.217737 2.98007 0.131928 3.08583C0.0461185 3.19159 -0.000326138 3.32189 1.72398e-06 3.45594V13.878C1.72398e-06 25.4086 10.8094 29.4587 12.3234 29.9702ZM20.0219 9.87C20.1411 9.70965 20.2262 9.52834 20.2725 9.3364C20.3187 9.14446 20.3251 8.94566 20.2913 8.75136C20.2575 8.55705 20.1841 8.37103 20.0754 8.20394C19.9667 8.03684 19.8248 7.89193 19.6578 7.77748C19.4908 7.66303 19.3019 7.58129 19.102 7.53691C18.9021 7.49254 18.695 7.4864 18.4926 7.51886C18.2902 7.55131 18.0964 7.62172 17.9223 7.72606C17.7483 7.83041 17.5973 7.96664 17.4781 8.12698L10.7375 17.1871L7.35469 13.938C7.06 13.6648 6.66531 13.5136 6.25562 13.517C5.84594 13.5204 5.45405 13.6782 5.16435 13.9563C4.87465 14.2344 4.71032 14.6106 4.70676 15.0039C4.7032 15.3972 4.86069 15.7762 5.14531 16.0591L9.83281 20.5591C9.99328 20.7129 10.1867 20.8313 10.3996 20.9062C10.6126 20.981 10.8399 21.0105 11.0659 20.9925C11.2919 20.9745 11.5111 20.9095 11.7083 20.802C11.9055 20.6946 12.0759 20.5472 12.2078 20.3701L20.0219 9.87Z" fill="#EF8422"/>
</svg>
